# xmcd
#
# Track frame offsets: 
#        150
#        10328
#        22693
#        37680
#        58181
#        70327
#        93252
#        108369
#        124098
#        136463
#        152688
#        168870
#
# Disc length: 2470 seconds
#
# Revision: 2
# Processed by: cddbd v1.5.2PL0 Copyright (c) Steve Scherf et al.
# Submitted via: ExactAudioCopy v1.0b1
#
DISCID=8d09a40c
DTITLE=Lonstar - Rio Bravo. Country na drogę
DYEAR=1999
DGENRE=Country
TTITLE0=My rifle, my pony and me
TTITLE1=Big river
TTITLE2=The last thing on my mind
TTITLE3=City of New Orleans
TTITLE4=Six days on the road
TTITLE5=Mr. Bojangles
TTITLE6=Do not forsake me
TTITLE7=Detroit City
TTITLE8=The blizzard
TTITLE9=Me and Bobby McGee
TTITLE10=Oh bury me not on a lone prairie
TTITLE11=Country roads take me home
EXTD=
EXTT0=
EXTT1=
EXTT2=
EXTT3=
EXTT4=
EXTT5=
EXTT6=
EXTT7=
EXTT8=
EXTT9=
EXTT10=
EXTT11=
PLAYORDER=
